<?xml version="1.0" encoding="utf-8"?>
<!-- Generator: Adobe Illustrator 16.0.0, SVG Export Plug-In . SVG Version: 6.00 Build 0)  -->
<!DOCTYPE svg PUBLIC "-//W3C//DTD SVG 1.1//EN" "http://www.w3.org/Graphics/SVG/1.1/DTD/svg11.dtd">
<svg version="1.1" id="Layer_1" xmlns="http://www.w3.org/2000/svg" xmlns:xlink="http://www.w3.org/1999/xlink" x="0px" y="0px"
	 width="577px" height="578px" viewBox="0 0 577 578" enable-background="new 0 0 577 578" xml:space="preserve">
<g id="Layer_3">
	<circle fill="none" stroke="#000000" stroke-width="30" stroke-miterlimit="10" cx="289.639" cy="289.397" r="270.736"/>
</g>
<path d="M340.372,251.712l65.051,65.051c0.78,0.78,2.048,0.78,2.828,0l65.051-65.051c0.781-0.781,0.78-2.048,0-2.829l-65.051-65.05
	c-0.78-0.781-2.047-0.781-2.828,0l-65.051,65.05C339.591,249.665,339.592,250.932,340.372,251.712z"/>
<path d="M264.253,327.787l65.051,65.051c0.781,0.78,2.047,0.781,2.829,0l65.05-65.051c0.781-0.781,0.78-2.048,0-2.828
	l-65.051-65.051c-0.78-0.78-2.047-0.781-2.828,0l-65.051,65.05C263.473,325.738,263.472,327.006,264.253,327.787z"/>
<path d="M321.301,401.238l-65.05-65.052c-0.781-0.78-2.048-0.78-2.829,0l-65.051,65.052c-0.78,0.78-0.781,2.047,0,2.828
	l65.05,65.051c0.781,0.78,2.048,0.78,2.829,0l65.051-65.05C322.082,403.286,322.081,402.019,321.301,401.238z"/>
<path d="M245.656,325.549l-65.05-65.05c-0.781-0.781-2.048-0.78-2.829,0l-65.051,65.051c-0.781,0.78-0.781,2.047,0,2.828
	l65.05,65.05c0.781,0.781,2.048,0.78,2.829,0l65.051-65.051C246.437,327.597,246.438,326.33,245.656,325.549z"/>
<path d="M321.749,249.456l-65.05-65.05c-0.781-0.781-2.048-0.781-2.829,0l-65.05,65.05c-0.782,0.782-0.781,2.048,0,2.829
	l65.05,65.05c0.781,0.78,2.047,0.781,2.829,0l65.05-65.051C322.53,251.503,322.53,250.238,321.749,249.456z"/>
<path d="M397.803,173.403l-65.051-65.051c-0.78-0.781-2.047-0.781-2.828,0l-65.05,65.05c-0.781,0.781-0.781,2.047,0,2.829
	l65.05,65.05c0.781,0.782,2.047,0.781,2.828,0l65.051-65.05C398.584,175.451,398.584,174.184,397.803,173.403z"/>
</svg>
