<?xml version="1.0" encoding="utf-8"?>
<!-- Generator: Adobe Illustrator 16.0.0, SVG Export Plug-In . SVG Version: 6.00 Build 0)  -->
<!DOCTYPE svg PUBLIC "-//W3C//DTD SVG 1.1//EN" "http://www.w3.org/Graphics/SVG/1.1/DTD/svg11.dtd">
<svg version="1.1" xmlns="http://www.w3.org/2000/svg" xmlns:xlink="http://www.w3.org/1999/xlink" x="0px" y="0px" width="577px"
	 height="578px" viewBox="0 0 577 578" enable-background="new 0 0 577 578" xml:space="preserve">
<g id="Layer_1_copy_2" display="none">
	<g display="inline">
		<circle fill="none" stroke="#000000" stroke-width="30" stroke-miterlimit="10" cx="289.639" cy="289.397" r="270.736"/>
		<g>
			
				<ellipse fill="none" stroke="#000000" stroke-width="16.0427" stroke-linecap="round" stroke-linejoin="round" stroke-miterlimit="10" cx="289.523" cy="159.05" rx="121.523" ry="21.658"/>
			
				<polyline fill="none" stroke="#000000" stroke-width="16" stroke-linecap="round" stroke-linejoin="round" stroke-miterlimit="10" points="
				411.235,160.604 370.689,441 209.349,441 168.802,160.579 			"/>
			<path d="M403.214,219.159L370.689,441H209.349l-32.525-221.765c0,0,47.326-5.039,102.673,9.4S403.214,219.159,403.214,219.159z"
				/>
		</g>
	</g>
</g>
<g id="Layer_1_copy_3">
	<g>
		<path d="M400.833,159.05c-10.656-5.502-48.455-13.636-111.31-13.636s-100.654,8.134-111.31,13.636
			c10.657,5.502,48.455,13.636,111.31,13.636S390.177,164.552,400.833,159.05z"/>
		<path d="M289.523,188.729c-32.917,0-63.934-2.297-87.337-6.468c-9.25-1.648-16.872-3.495-22.974-5.591l6.072,41.995
			c16.012-0.732,52.873-0.814,94.212,9.971c43.264,11.286,94.484-0.862,114.787-6.704l6.598-45.631
			c-6.271,2.25-14.232,4.216-24.021,5.961C353.458,186.432,322.44,188.729,289.523,188.729z"/>
		<path d="M289.639,18.661c-149.523,0-270.736,121.213-270.736,270.737c0,149.523,121.213,270.736,270.736,270.736
			s270.736-121.213,270.736-270.736C560.375,139.874,439.162,18.661,289.639,18.661z M419.153,161.749l-40.546,280.396
			c-0.569,3.936-3.941,6.855-7.917,6.855H209.349c-3.976,0-7.349-2.92-7.917-6.855l-40.125-277.509
			c-0.888-1.746-1.327-3.603-1.327-5.585c0-10.851,13.018-18.009,42.208-23.211c23.403-4.171,54.42-6.468,87.337-6.468
			s63.935,2.297,87.337,6.468c29.149,5.195,42.169,12.341,42.206,23.167C419.246,159.885,419.289,160.808,419.153,161.749z"/>
	</g>
</g>
</svg>
