<?xml version="1.0" encoding="utf-8"?>
<!-- Generator: Adobe Illustrator 16.0.0, SVG Export Plug-In . SVG Version: 6.00 Build 0)  -->
<!DOCTYPE svg PUBLIC "-//W3C//DTD SVG 1.1//EN" "http://www.w3.org/Graphics/SVG/1.1/DTD/svg11.dtd">
<svg version="1.1" xmlns="http://www.w3.org/2000/svg" xmlns:xlink="http://www.w3.org/1999/xlink" x="0px" y="0px" width="577px"
	 height="578px" viewBox="0 0 577 578" enable-background="new 0 0 577 578" xml:space="preserve">
<g id="Layer_1_copy_2" display="none">
	<g display="inline">
		<g>
			
				<ellipse fill="none" stroke="#000000" stroke-width="16.0427" stroke-linecap="round" stroke-linejoin="round" stroke-miterlimit="10" cx="289.523" cy="159.05" rx="121.523" ry="21.658"/>
			
				<polyline fill="none" stroke="#000000" stroke-width="16" stroke-linecap="round" stroke-linejoin="round" stroke-miterlimit="10" points="
				411.235,160.604 370.689,441 209.349,441 168.802,160.579 			"/>
			<path d="M403.214,219.159L370.689,441H209.349l-32.525-221.765c0,0,47.326-5.039,102.673,9.4S403.214,219.159,403.214,219.159z"
				/>
		</g>
		<circle fill="none" stroke="#000000" stroke-width="30" stroke-miterlimit="10" cx="289.639" cy="289.397" r="270.736"/>
	</g>
</g>
<g id="Layer_1_copy_3" display="none">
	<g display="inline">
		<path d="M400.833,159.05c-10.656-5.502-48.455-13.636-111.31-13.636s-100.654,8.134-111.31,13.636
			c10.657,5.502,48.455,13.636,111.31,13.636S390.177,164.552,400.833,159.05z"/>
		<path d="M289.523,188.729c-32.917,0-63.934-2.297-87.337-6.468c-9.25-1.648-16.872-3.495-22.974-5.591l6.072,41.995
			c16.012-0.732,52.873-0.814,94.212,9.971c43.264,11.286,94.484-0.862,114.787-6.704l6.598-45.631
			c-6.271,2.25-14.232,4.216-24.021,5.961C353.458,186.432,322.44,188.729,289.523,188.729z"/>
		<path d="M289.639,18.661c-149.523,0-270.736,121.213-270.736,270.737c0,149.523,121.213,270.736,270.736,270.736
			s270.736-121.213,270.736-270.736C560.375,139.874,439.162,18.661,289.639,18.661z M419.153,161.749l-40.546,280.396
			c-0.569,3.936-3.941,6.855-7.917,6.855H209.349c-3.976,0-7.349-2.92-7.917-6.855l-40.125-277.509
			c-0.888-1.746-1.327-3.603-1.327-5.585c0-10.851,13.018-18.009,42.208-23.211c23.403-4.171,54.42-6.468,87.337-6.468
			s63.935,2.297,87.337,6.468c29.149,5.195,42.169,12.341,42.206,23.167C419.246,159.885,419.289,160.808,419.153,161.749z"/>
	</g>
</g>
<g id="Layer_3" display="none">
	
		<circle display="inline" fill="none" stroke="#000000" stroke-width="30" stroke-miterlimit="10" cx="288.805" cy="288.824" r="270.736"/>
	
		<polygon display="inline" fill="none" stroke="#000000" stroke-width="20" stroke-linecap="round" stroke-linejoin="round" stroke-miterlimit="10" points="
		285.892,312.921 158.776,437.226 158.834,437.573 255.834,288.574 	"/>
	<path display="inline" d="M322.834,140.074c-53.02,0-96,42.981-96,96s42.98,96,96,96s96-42.98,96-96
		S375.854,140.074,322.834,140.074z M322.834,247.074c-6.075,0-11-4.925-11-11c0-2.433,0.799-4.674,2.137-6.495
		c-0.076-0.109-0.151-0.22-0.216-0.34l-20-37c-0.919-1.701-0.286-3.824,1.415-4.744c1.701-0.918,3.824-0.286,4.744,1.415
		l19.795,36.622c0.992-0.293,2.039-0.457,3.125-0.457c6.075,0,11,4.925,11,11S328.909,247.074,322.834,247.074z"/>
</g>
<g id="Layer_3_copy" display="none">
	<g display="inline">
		<path d="M322.834,225.074c-1.087,0-2.134,0.164-3.125,0.457l-19.795-36.622c-0.919-1.7-3.043-2.333-4.744-1.415
			c-1.7,0.919-2.333,3.043-1.415,4.744l20,37c0.065,0.12,0.14,0.231,0.216,0.34c-1.337,1.821-2.137,4.062-2.137,6.495
			c0,6.075,4.925,11,11,11s11-4.925,11-11S328.909,225.074,322.834,225.074z"/>
		<path d="M217.452,365.861l51.479-50.342c-4.358-2.963-8.461-6.272-12.266-9.894L217.452,365.861z"/>
		<path d="M288.805,18.087c-149.523,0-270.736,121.213-270.736,270.737s121.213,270.737,270.736,270.737
			s270.736-121.213,270.736-270.737S438.328,18.087,288.805,18.087z M322.834,332.073c-12.484,0-24.411-2.385-35.353-6.721
			L167.337,442.841l-0.123,0.188c-1.869,2.871-5.043,4.545-8.379,4.545c-0.68,0-1.367-0.07-2.051-0.213
			c-4.037-0.846-7.141-4.083-7.816-8.152l-0.058-0.348c-0.534-3.219,0.537-6.496,2.867-8.779l91.405-140.404
			c-10.322-15.308-16.349-33.752-16.349-53.604c0-53.019,42.98-96,96-96s96,42.981,96,96S375.854,332.073,322.834,332.073z"/>
	</g>
	<g id="Layer_5" display="inline">
		<path d="M322.834,225.074c-1.087,0-2.134,0.163-3.125,0.457l-19.795-36.622c-0.919-1.7-3.043-2.333-4.744-1.415
			c-1.7,0.919-2.333,3.043-1.415,4.744l20,37c0.065,0.12,0.14,0.23,0.216,0.34c-1.337,1.822-2.137,4.063-2.137,6.496
			c0,6.074,4.925,11,11,11s11-4.926,11-11C333.834,229.998,328.909,225.074,322.834,225.074z"/>
	</g>
</g>
<g id="Layer_6" display="none">
	
		<circle display="inline" fill="none" stroke="#000000" stroke-width="30" stroke-miterlimit="10" cx="288.73" cy="289.864" r="270.736"/>
	<path display="inline" d="M412.426,124.971c-329.999,41-244.999,328-244.999,328C486.427,482.971,412.426,124.971,412.426,124.971z
		 M225.436,365.971c-0.191,0-0.383-0.005-0.576-0.016c-5.514-0.314-9.73-5.037-9.417-10.552
		c2.175-38.288,21.521-78.623,55.946-116.644c25.624-28.301,50.354-45.332,51.394-46.043c4.56-3.115,10.781-1.948,13.899,2.611
		c3.116,4.558,1.949,10.778-2.606,13.896c-0.939,0.644-94.008,65.352-98.665,147.315
		C235.108,361.859,230.699,365.971,225.436,365.971z M371.383,225.487c-1.407,5.412-35.357,132.957-113.693,169.878
		c-1.377,0.649-2.829,0.957-4.257,0.957c-3.751,0-7.347-2.12-9.052-5.738c-2.355-4.996-0.214-10.955,4.782-13.309
		c69.955-32.973,102.543-155.586,102.864-156.82c1.389-5.345,6.847-8.551,12.194-7.162
		C369.566,214.683,372.773,220.142,371.383,225.487z"/>
</g>
<g id="Layer_6_copy" display="none">
	<g display="inline">
		<path d="M364.221,213.293c-5.347-1.389-10.805,1.817-12.194,7.162c-0.321,1.234-32.909,123.848-102.864,156.82
			c-4.996,2.354-7.137,8.313-4.782,13.309c1.705,3.618,5.301,5.738,9.052,5.738c1.428,0,2.879-0.308,4.257-0.957
			c78.335-36.921,112.286-164.466,113.693-169.878C372.773,220.142,369.566,214.683,364.221,213.293z"/>
		<path d="M334.076,209.223c4.555-3.118,5.722-9.338,2.606-13.896c-3.118-4.56-9.34-5.726-13.899-2.611
			c-1.04,0.711-25.77,17.743-51.394,46.043c-34.424,38.021-53.771,78.356-55.946,116.644c-0.313,5.515,3.903,10.237,9.417,10.552
			c0.193,0.011,0.385,0.016,0.576,0.016c5.263,0,9.673-4.111,9.975-9.433C240.068,274.574,333.136,209.867,334.076,209.223z"/>
		<path d="M288.73,19.127c-149.523,0-270.736,121.213-270.736,270.737c0,149.523,121.213,270.736,270.736,270.736
			c149.523,0,270.736-121.213,270.736-270.736C559.466,140.34,438.253,19.127,288.73,19.127z M167.427,452.971
			c0,0-85-287,244.999-328C412.426,124.971,486.427,482.971,167.427,452.971z"/>
	</g>
</g>
<g id="Layer_8">
	<circle fill="none" stroke="#000000" stroke-width="30" stroke-miterlimit="10" cx="288.592" cy="289.479" r="270.736"/>
	<g>
		<path d="M440.737,159.121c0,8.791-2.563,15.879-5.727,15.879H142.173c-3.163,0-5.727-7.107-5.727-15.898"/>
		<g>
			<rect x="202" y="167" width="15" height="45"/>
			<rect x="360" y="167" width="15" height="45"/>
		</g>
		<path stroke="#000000" stroke-width="8" stroke-linecap="round" stroke-linejoin="round" stroke-miterlimit="10" d="M378.979,207
			h-89.979h-0.818h-89.978l-77.709,213h167.687h0.818h167.688L378.979,207z M287.773,399.469c-47.66,0-86.297-38.638-86.297-86.298
			c0-47.661,38.637-86.298,86.297-86.298c47.661,0,86.298,38.637,86.298,86.298C374.071,360.831,335.435,399.469,287.773,399.469z"
			/>
		<path d="M322.435,277.04c-1.663-1.665-4.361-1.665-6.024,0l-22.256,22.256c-1.801-0.899-3.829-1.407-5.978-1.407
			c-7.405,0-13.409,6.004-13.409,13.41c0,7.405,6.004,13.408,13.409,13.408c7.406,0,13.409-6.003,13.409-13.408
			c0-2.149-0.508-4.178-1.406-5.979l22.255-22.256C324.1,281.401,324.1,278.704,322.435,277.04z"/>
	</g>
</g>
</svg>
