<?xml version="1.0" encoding="utf-8"?>
<!-- Generator: Adobe Illustrator 16.0.0, SVG Export Plug-In . SVG Version: 6.00 Build 0)  -->
<!DOCTYPE svg PUBLIC "-//W3C//DTD SVG 1.1//EN" "http://www.w3.org/Graphics/SVG/1.1/DTD/svg11.dtd">
<svg version="1.1" xmlns="http://www.w3.org/2000/svg" xmlns:xlink="http://www.w3.org/1999/xlink" x="0px" y="0px" width="577px"
	 height="578px" viewBox="0 0 577 578" enable-background="new 0 0 577 578" xml:space="preserve">
<g id="Layer_1_copy_2" display="none">
	<g display="inline">
		<g>
			
				<ellipse fill="none" stroke="#000000" stroke-width="16.0427" stroke-linecap="round" stroke-linejoin="round" stroke-miterlimit="10" cx="289.523" cy="159.05" rx="121.523" ry="21.658"/>
			
				<polyline fill="none" stroke="#000000" stroke-width="16" stroke-linecap="round" stroke-linejoin="round" stroke-miterlimit="10" points="
				411.235,160.604 370.689,441 209.349,441 168.802,160.579 			"/>
			<path d="M403.214,219.159L370.689,441H209.349l-32.525-221.765c0,0,47.326-5.039,102.673,9.4S403.214,219.159,403.214,219.159z"
				/>
		</g>
		<circle fill="none" stroke="#000000" stroke-width="30" stroke-miterlimit="10" cx="289.639" cy="289.397" r="270.736"/>
	</g>
</g>
<g id="Layer_1_copy_3" display="none">
	<g display="inline">
		<path d="M400.833,159.05c-10.656-5.502-48.455-13.636-111.31-13.636s-100.654,8.134-111.31,13.636
			c10.657,5.502,48.455,13.636,111.31,13.636S390.177,164.552,400.833,159.05z"/>
		<path d="M289.523,188.729c-32.917,0-63.934-2.297-87.337-6.468c-9.25-1.648-16.872-3.495-22.974-5.591l6.072,41.995
			c16.012-0.732,52.873-0.814,94.212,9.971c43.264,11.286,94.484-0.862,114.787-6.704l6.598-45.631
			c-6.271,2.25-14.232,4.216-24.021,5.961C353.458,186.432,322.44,188.729,289.523,188.729z"/>
		<path d="M289.639,18.661c-149.523,0-270.736,121.213-270.736,270.737c0,149.523,121.213,270.736,270.736,270.736
			s270.736-121.213,270.736-270.736C560.375,139.874,439.162,18.661,289.639,18.661z M419.153,161.749l-40.546,280.396
			c-0.569,3.936-3.941,6.855-7.917,6.855H209.349c-3.976,0-7.349-2.92-7.917-6.855l-40.125-277.509
			c-0.888-1.746-1.327-3.603-1.327-5.585c0-10.851,13.018-18.009,42.208-23.211c23.403-4.171,54.42-6.468,87.337-6.468
			s63.935,2.297,87.337,6.468c29.149,5.195,42.169,12.341,42.206,23.167C419.246,159.885,419.289,160.808,419.153,161.749z"/>
	</g>
</g>
<g id="Layer_3" display="none">
	
		<circle display="inline" fill="none" stroke="#000000" stroke-width="30" stroke-miterlimit="10" cx="288.805" cy="288.824" r="270.736"/>
	
		<polygon display="inline" fill="none" stroke="#000000" stroke-width="20" stroke-linecap="round" stroke-linejoin="round" stroke-miterlimit="10" points="
		285.892,312.921 158.776,437.226 158.834,437.573 255.834,288.574 	"/>
	<path display="inline" d="M322.834,140.074c-53.02,0-96,42.981-96,96s42.98,96,96,96s96-42.98,96-96
		S375.854,140.074,322.834,140.074z M322.834,247.074c-6.075,0-11-4.925-11-11c0-2.433,0.799-4.674,2.137-6.495
		c-0.076-0.109-0.151-0.22-0.216-0.34l-20-37c-0.919-1.701-0.286-3.824,1.415-4.744c1.701-0.918,3.824-0.286,4.744,1.415
		l19.795,36.622c0.992-0.293,2.039-0.457,3.125-0.457c6.075,0,11,4.925,11,11S328.909,247.074,322.834,247.074z"/>
</g>
<g id="Layer_3_copy">
	<g>
		<path d="M322.834,225.074c-1.087,0-2.134,0.164-3.125,0.457l-19.795-36.622c-0.919-1.7-3.043-2.333-4.744-1.415
			c-1.7,0.919-2.333,3.043-1.415,4.744l20,37c0.065,0.12,0.14,0.231,0.216,0.34c-1.337,1.821-2.137,4.062-2.137,6.495
			c0,6.075,4.925,11,11,11s11-4.925,11-11S328.909,225.074,322.834,225.074z"/>
		<path d="M217.452,365.861l51.479-50.342c-4.358-2.963-8.461-6.272-12.266-9.894L217.452,365.861z"/>
		<path d="M288.805,18.087c-149.523,0-270.736,121.213-270.736,270.737s121.213,270.737,270.736,270.737
			s270.736-121.213,270.736-270.737S438.328,18.087,288.805,18.087z M322.834,332.073c-12.484,0-24.411-2.385-35.353-6.721
			L167.337,442.841l-0.123,0.188c-1.869,2.871-5.043,4.545-8.379,4.545c-0.68,0-1.367-0.07-2.051-0.213
			c-4.037-0.846-7.141-4.083-7.816-8.152l-0.058-0.348c-0.534-3.219,0.537-6.496,2.867-8.779l91.405-140.404
			c-10.322-15.308-16.349-33.752-16.349-53.604c0-53.019,42.98-96,96-96s96,42.981,96,96S375.854,332.073,322.834,332.073z"/>
	</g>
	<g id="Layer_5">
		<path d="M322.834,225.074c-1.087,0-2.134,0.163-3.125,0.457l-19.795-36.622c-0.919-1.7-3.043-2.333-4.744-1.415
			c-1.7,0.919-2.333,3.043-1.415,4.744l20,37c0.065,0.12,0.14,0.23,0.216,0.34c-1.337,1.822-2.137,4.063-2.137,6.496
			c0,6.074,4.925,11,11,11s11-4.926,11-11C333.834,229.998,328.909,225.074,322.834,225.074z"/>
	</g>
</g>
</svg>
